<svg width="1440" height="900" viewBox="0 0 1440 900" fill="none" xmlns="http://www.w3.org/2000/svg"><rect width="1440" height="900" fill="#f8fafc"/><rect x="40" y="36" width="1360" height="210" rx="28" fill="#111827"/><text x="80" y="86" fill="#93c5fd" font-family="Arial" font-size="20" font-weight="700" letter-spacing="4">ATS LITE WORKFLOW ASSISTANT</text><text x="80" y="150" fill="#fff" font-family="Arial" font-size="56" font-weight="800">RecruitPilot AI</text><text x="80" y="200" fill="#e5e7eb" font-family="Arial" font-size="24">Organize role details and resume text into structured review notes, question prompts, summaries, and export files.</text><text x="40" y="310" fill="#111827" font-family="Arial" font-size="34" font-weight="800">Review packet preview</text><rect x="40" y="340" width="315" height="125" rx="20" fill="#fff" stroke="#e5e7eb"/><text x="70" y="385" fill="#6b7280" font-family="Arial" font-size="17" font-weight="700">PROFILE</text><text x="70" y="438" fill="#111827" font-family="Arial" font-size="34" font-weight="800">Jordan Miller</text><rect x="390" y="340" width="315" height="125" rx="20" fill="#fff" stroke="#e5e7eb"/><text x="420" y="385" fill="#6b7280" font-family="Arial" font-size="17" font-weight="700">WORKFLOW STAGE</text><text x="420" y="438" fill="#111827" font-family="Arial" font-size="34" font-weight="800">Resume Review</text><rect x="740" y="340" width="315" height="125" rx="20" fill="#fff" stroke="#e5e7eb"/><text x="770" y="385" fill="#6b7280" font-family="Arial" font-size="17" font-weight="700">SIGNAL SUMMARY</text><text x="770" y="438" fill="#111827" font-family="Arial" font-size="32" font-weight="800">Relevant Notes</text><rect x="1090" y="340" width="310" height="125" rx="20" fill="#fff" stroke="#e5e7eb"/><text x="1120" y="385" fill="#6b7280" font-family="Arial" font-size="17" font-weight="700">TERM COVERAGE</text><text x="1120" y="438" fill="#111827" font-family="Arial" font-size="44" font-weight="800">72%</text><rect x="40" y="500" width="1360" height="105" rx="20" fill="#fff" stroke="#e5e7eb"/><text x="70" y="542" fill="#111827" font-family="Arial" font-size="24" font-weight="800">Next review step</text><text x="70" y="580" fill="#4b5563" font-family="Arial" font-size="20">Prepare a structured follow-up conversation using the generated question prompts and missing-information notes.</text><text x="40" y="660" fill="#111827" font-family="Arial" font-size="34" font-weight="800">Signals and exports</text><rect x="40" y="690" width="430" height="140" rx="20" fill="#fff" stroke="#e5e7eb"/><text x="70" y="735" fill="#111827" font-family="Arial" font-size="22" font-weight="800">Match Signals</text><text x="70" y="770" fill="#4b5563" font-family="Arial" font-size="18">Sales • CRM • Follow-up • Customer presentations</text><rect x="505" y="690" width="430" height="140" rx="20" fill="#fff" stroke="#e5e7eb"/><text x="535" y="735" fill="#111827" font-family="Arial" font-size="22" font-weight="800">Clarification Notes</text><text x="535" y="770" fill="#4b5563" font-family="Arial" font-size="18">Prospecting volume • Examples • Pipeline ownership</text><rect x="970" y="690" width="430" height="140" rx="20" fill="#fff" stroke="#e5e7eb"/><text x="1000" y="735" fill="#111827" font-family="Arial" font-size="22" font-weight="800">Downloads</text><text x="1000" y="770" fill="#4b5563" font-family="Arial" font-size="18">Markdown packet + CSV tracking row</text></svg>